NotoSerifTamilSlanted-ExtraCondensedBlack.ufo
<glyph name="exclam" format="2">
  <advance width="368"/>
  <unicode hex="0021"/>
  <outline>
    <contour>
      <point x="153" y="238" type="line"/>
      <point x="218" y="238" type="line"/>
      <point x="392" y="714" type="line"/>
      <point x="206" y="714" type="line"/>
    </contour>
    <contour>
      <point x="156" y="-8" type="curve" smooth="yes"/>
      <point x="199" y="-8"/>
      <point x="246" y="17"/>
      <point x="246" y="90" type="curve" smooth="yes"/>
      <point x="246" y="139"/>
      <point x="214" y="163"/>
      <point x="169" y="163" type="curve" smooth="yes"/>
      <point x="114" y="163"/>
      <point x="79" y="123"/>
      <point x="79" y="64" type="curve" smooth="yes"/>
      <point x="79" y="15"/>
      <point x="110" y="-8"/>
    </contour>
  </outline>
</glyph>
<glyph name="percent" format="2">
  <advance width="766"/>
  <unicode hex="0025"/>
  <outline>
    <contour>
      <point x="173" y="0" type="line"/>
      <point x="240" y="0" type="line"/>
      <point x="666" y="714" type="line"/>
      <point x="602" y="714" type="line"/>
    </contour>
    <contour>
      <point x="198" y="279" type="curve" smooth="yes"/>
      <point x="346" y="279"/>
      <point x="416" y="470"/>
      <point x="416" y="587" type="curve" smooth="yes"/>
      <point x="416" y="665"/>
      <point x="379" y="725"/>
      <point x="294" y="725" type="curve" smooth="yes"/>
      <point x="147" y="725"/>
      <point x="79" y="539"/>
      <point x="79" y="413" type="curve" smooth="yes"/>
      <point x="79" y="327"/>
      <point x="125" y="279"/>
    </contour>
    <contour>
      <point x="216" y="334" type="curve" smooth="yes"/>
      <point x="197" y="334"/>
      <point x="189" y="361"/>
      <point x="189" y="403" type="curve" smooth="yes"/>
      <point x="189" y="480"/>
      <point x="230" y="667"/>
      <point x="290" y="667" type="curve" smooth="yes"/>
      <point x="310" y="667"/>
      <point x="317" y="643"/>
      <point x="317" y="603" type="curve" smooth="yes"/>
      <point x="317" y="523"/>
      <point x="276" y="334"/>
    </contour>
    <contour>
      <point x="542" y="-10" type="curve" smooth="yes"/>
      <point x="690" y="-10"/>
      <point x="760" y="180"/>
      <point x="760" y="297" type="curve" smooth="yes"/>
      <point x="760" y="374"/>
      <point x="723" y="434"/>
      <point x="638" y="434" type="curve" smooth="yes"/>
      <point x="491" y="434"/>
      <point x="423" y="249"/>
      <point x="423" y="123" type="curve" smooth="yes"/>
      <point x="423" y="38"/>
      <point x="469" y="-10"/>
    </contour>
    <contour>
      <point x="558" y="44" type="curve" smooth="yes"/>
      <point x="540" y="44"/>
      <point x="532" y="71"/>
      <point x="532" y="113" type="curve" smooth="yes"/>
      <point x="532" y="189"/>
      <point x="573" y="377"/>
      <point x="633" y="377" type="curve" smooth="yes"/>
      <point x="653" y="377"/>
      <point x="660" y="352"/>
      <point x="660" y="312" type="curve" smooth="yes"/>
      <point x="660" y="233"/>
      <point x="619" y="44"/>
    </contour>
  </outline>
</glyph>
<glyph name="plus" format="2">
  <advance width="425"/>
  <unicode hex="002B"/>
  <outline>
    <contour>
      <point x="210" y="143" type="line"/>
      <point x="287" y="143" type="line"/>
      <point x="287" y="321" type="line"/>
      <point x="427" y="321" type="line"/>
      <point x="427" y="394" type="line"/>
      <point x="287" y="394" type="line"/>
      <point x="287" y="572" type="line"/>
      <point x="210" y="572" type="line"/>
      <point x="210" y="394" type="line"/>
      <point x="70" y="394" type="line"/>
      <point x="70" y="321" type="line"/>
      <point x="210" y="321" type="line"/>
    </contour>
  </outline>
</glyph>
<glyph name="three" format="2">
  <advance width="505"/>
  <unicode hex="0033"/>
  <outline>
    <contour>
      <point x="195" y="-10" type="curve" smooth="yes"/>
      <point x="316" y="-10"/>
      <point x="465" y="50"/>
      <point x="465" y="233" type="curve" smooth="yes"/>
      <point x="465" y="314"/>
      <point x="420" y="361"/>
      <point x="348" y="371" type="curve"/>
      <point x="462" y="395"/>
      <point x="521" y="493"/>
      <point x="521" y="586" type="curve" smooth="yes"/>
      <point x="521" y="674"/>
      <point x="450" y="724"/>
      <point x="343" y="724" type="curve" smooth="yes"/>
      <point x="219" y="724"/>
      <point x="119" y="654"/>
      <point x="119" y="572" type="curve" smooth="yes"/>
      <point x="119" y="525"/>
      <point x="170" y="510"/>
      <point x="237" y="510" type="curve"/>
      <point x="250" y="589"/>
      <point x="274" y="659"/>
      <point x="319" y="659" type="curve" smooth="yes"/>
      <point x="352" y="659"/>
      <point x="363" y="629"/>
      <point x="363" y="587" type="curve" smooth="yes"/>
      <point x="363" y="475"/>
      <point x="291" y="402"/>
      <point x="191" y="402" type="curve" smooth="yes"/>
      <point x="165" y="402" type="line"/>
      <point x="154" y="336" type="line"/>
      <point x="191" y="336" type="line" smooth="yes"/>
      <point x="265" y="336"/>
      <point x="305" y="299"/>
      <point x="305" y="227" type="curve" smooth="yes"/>
      <point x="305" y="122"/>
      <point x="252" y="67"/>
      <point x="212" y="67" type="curve" smooth="yes"/>
      <point x="157" y="67"/>
      <point x="129" y="121"/>
      <point x="133" y="206" type="curve"/>
      <point x="55" y="206"/>
      <point x="14" y="171"/>
      <point x="14" y="113" type="curve" smooth="yes"/>
      <point x="14" y="57"/>
      <point x="60" y="-10"/>
    </contour>
  </outline>
</glyph>
<glyph name="equal" format="2">
  <advance width="425"/>
  <unicode hex="003D"/>
  <outline>
    <contour>
      <point x="67" y="408" type="line"/>
      <point x="430" y="408" type="line"/>
      <point x="430" y="481" type="line"/>
      <point x="67" y="481" type="line"/>
    </contour>
    <contour>
      <point x="67" y="233" type="line"/>
      <point x="430" y="233" type="line"/>
      <point x="430" y="306" type="line"/>
      <point x="67" y="306" type="line"/>
    </contour>
  </outline>
</glyph>
<glyph name="twosuperior" format="2">
  <advance width="326"/>
  <unicode hex="00B2"/>
  <outline>
    <contour>
      <point x="64" y="386" type="line"/>
      <point x="339" y="386" type="line"/>
      <point x="367" y="533" type="line"/>
      <point x="332" y="533" type="line"/>
      <point x="325" y="512" type="line" smooth="yes"/>
      <point x="318" y="490"/>
      <point x="305" y="471"/>
      <point x="280" y="471" type="curve" smooth="yes"/>
      <point x="153" y="471" type="line"/>
      <point x="263" y="560" type="line" smooth="yes"/>
      <point x="364" y="642"/>
      <point x="397" y="683"/>
      <point x="397" y="739" type="curve" smooth="yes"/>
      <point x="397" y="790"/>
      <point x="355" y="824"/>
      <point x="286" y="824" type="curve" smooth="yes"/>
      <point x="204" y="824"/>
      <point x="152" y="783"/>
      <point x="152" y="728" type="curve" smooth="yes"/>
      <point x="152" y="697"/>
      <point x="179" y="677"/>
      <point x="221" y="677" type="curve"/>
      <point x="227" y="730"/>
      <point x="245" y="777"/>
      <point x="269" y="777" type="curve" smooth="yes"/>
      <point x="289" y="777"/>
      <point x="296" y="756"/>
      <point x="296" y="733" type="curve" smooth="yes"/>
      <point x="296" y="680"/>
      <point x="274" y="634"/>
      <point x="204" y="574" type="curve" smooth="yes"/>
      <point x="86" y="473" type="line"/>
    </contour>
  </outline>
</glyph>
<glyph name="threesuperior" format="2">
  <advance width="326"/>
  <unicode hex="00B3"/>
  <outline>
    <contour>
      <point x="198" y="380" type="curve" smooth="yes"/>
      <point x="295" y="380"/>
      <point x="371" y="430"/>
      <point x="371" y="522" type="curve" smooth="yes"/>
      <point x="371" y="574"/>
      <point x="340" y="603"/>
      <point x="292" y="610" type="curve"/>
      <point x="293" y="615" type="line"/>
      <point x="355" y="631"/>
      <point x="399" y="665"/>
      <point x="399" y="737" type="curve" smooth="yes"/>
      <point x="399" y="784"/>
      <point x="364" y="824"/>
      <point x="287" y="824" type="curve" smooth="yes"/>
      <point x="203" y="824"/>
      <point x="152" y="783"/>
      <point x="152" y="736" type="curve" smooth="yes"/>
      <point x="152" y="705"/>
      <point x="181" y="690"/>
      <point x="228" y="690" type="curve"/>
      <point x="232" y="734"/>
      <point x="242" y="774"/>
      <point x="275" y="774" type="curve" smooth="yes"/>
      <point x="292" y="774"/>
      <point x="301" y="757"/>
      <point x="301" y="736" type="curve" smooth="yes"/>
      <point x="301" y="670"/>
      <point x="262" y="630"/>
      <point x="215" y="630" type="curve" smooth="yes"/>
      <point x="187" y="630" type="line"/>
      <point x="178" y="581" type="line"/>
      <point x="205" y="581" type="line" smooth="yes"/>
      <point x="255" y="581"/>
      <point x="277" y="552"/>
      <point x="277" y="517" type="curve" smooth="yes"/>
      <point x="277" y="458"/>
      <point x="245" y="434"/>
      <point x="208" y="434" type="curve" smooth="yes"/>
      <point x="159" y="434"/>
      <point x="143" y="483"/>
      <point x="145" y="520" type="curve"/>
      <point x="101" y="520"/>
      <point x="69" y="498"/>
      <point x="69" y="460" type="curve" smooth="yes"/>
      <point x="69" y="410"/>
      <point x="111" y="380"/>
    </contour>
  </outline>
</glyph>
<glyph name="a-tamil" format="2">
  <advance width="1142"/>
  <unicode hex="0B85"/>
  <note>
uni0B85
</note>
  <anchor x="495" y="0" name="bottom"/>
  <anchor x="293" y="-156" name="nukta"/>
  <anchor x="603" y="576" name="top"/>
  <anchor x="603" y="576" name="vedic"/>
  <outline>
    <contour>
      <point x="804" y="-221" type="line"/>
      <point x="977" y="-221" type="line"/>
      <point x="1147" y="576" type="line"/>
      <point x="973" y="576" type="line"/>
      <point x="884" y="157" type="line"/>
      <point x="72" y="157" type="line" smooth="yes"/>
      <point x="12" y="157"/>
      <point x="-26" y="109"/>
      <point x="-26" y="50" type="curve" smooth="yes"/>
      <point x="-26" y="-66"/>
      <point x="118" y="-156"/>
      <point x="293" y="-156" type="curve" smooth="yes"/>
      <point x="583" y="-156"/>
      <point x="821" y="19"/>
      <point x="821" y="301" type="curve" smooth="yes"/>
      <point x="821" y="472"/>
      <point x="704" y="581"/>
      <point x="543" y="581" type="curve" smooth="yes"/>
      <point x="397" y="581"/>
      <point x="283" y="485"/>
      <point x="283" y="348" type="curve" smooth="yes"/>
      <point x="283" y="268"/>
      <point x="339" y="211"/>
      <point x="416" y="211" type="curve" smooth="yes"/>
      <point x="519" y="211"/>
      <point x="584" y="284"/>
      <point x="584" y="390" type="curve" smooth="yes"/>
      <point x="584" y="451"/>
      <point x="551" y="508"/>
      <point x="510" y="538" type="curve"/>
      <point x="447" y="529" type="line"/>
      <point x="479" y="503"/>
      <point x="496" y="457"/>
      <point x="496" y="415" type="curve" smooth="yes"/>
      <point x="496" y="354"/>
      <point x="472" y="296"/>
      <point x="413" y="296" type="curve" smooth="yes"/>
      <point x="385" y="296"/>
      <point x="358" y="317"/>
      <point x="358" y="363" type="curve" smooth="yes"/>
      <point x="358" y="445"/>
      <point x="424" y="510"/>
      <point x="515" y="510" type="curve" smooth="yes"/>
      <point x="612" y="510"/>
      <point x="667" y="437"/>
      <point x="667" y="326" type="curve" smooth="yes"/>
      <point x="667" y="89"/>
      <point x="525" y="-86"/>
      <point x="279" y="-86" type="curve" smooth="yes"/>
      <point x="152" y="-86"/>
      <point x="52" y="-16"/>
      <point x="52" y="50" type="curve" smooth="yes"/>
      <point x="52" y="76"/>
      <point x="62" y="88"/>
      <point x="84" y="88" type="curve" smooth="yes"/>
      <point x="869" y="88" type="line"/>
    </contour>
  </outline>
</glyph>
<glyph name="ii-tamil" format="2">
  <advance width="715"/>
  <unicode hex="0B88"/>
  <note>
uni0B88
</note>
  <anchor x="302" y="0" name="bottom"/>
  <anchor x="303" y="0" name="nukta"/>
  <anchor x="426" y="576" name="top"/>
  <anchor x="427" y="576" name="vedic"/>
  <outline>
    <contour>
      <point x="-5" y="0" type="line"/>
      <point x="66" y="0" type="line"/>
      <point x="174" y="509" type="line"/>
      <point x="365" y="509" type="line"/>
      <point x="257" y="0" type="line"/>
      <point x="433" y="0" type="line"/>
      <point x="541" y="509" type="line"/>
      <point x="718" y="509" type="line"/>
      <point x="732" y="576" type="line"/>
      <point x="117" y="576" type="line"/>
    </contour>
    <contour>
      <point x="219" y="205" type="curve" smooth="yes"/>
      <point x="257" y="205"/>
      <point x="290" y="236"/>
      <point x="290" y="274" type="curve" smooth="yes"/>
      <point x="290" y="311"/>
      <point x="257" y="342"/>
      <point x="219" y="342" type="curve" smooth="yes"/>
      <point x="181" y="342"/>
      <point x="149" y="311"/>
      <point x="149" y="274" type="curve" smooth="yes"/>
      <point x="149" y="236"/>
      <point x="181" y="205"/>
    </contour>
    <contour>
      <point x="588" y="205" type="curve" smooth="yes"/>
      <point x="626" y="205"/>
      <point x="659" y="236"/>
      <point x="659" y="274" type="curve" smooth="yes"/>
      <point x="659" y="311"/>
      <point x="626" y="342"/>
      <point x="588" y="342" type="curve" smooth="yes"/>
      <point x="550" y="342"/>
      <point x="518" y="311"/>
      <point x="518" y="274" type="curve" smooth="yes"/>
      <point x="518" y="236"/>
      <point x="550" y="205"/>
    </contour>
  </outline>
</glyph>
<glyph name="nga-tamil" format="2">
  <advance width="871"/>
  <unicode hex="0B99"/>
  <note>
uni0B99
</note>
  <anchor x="368" y="0" name="bottom"/>
  <anchor x="524" y="576" name="imatra"/>
  <anchor x="371" y="0" name="nukta"/>
  <anchor x="524" y="576" name="top"/>
  <anchor x="496" y="576" name="vedic"/>
  <outline>
    <contour>
      <point x="-5" y="0" type="line"/>
      <point x="66" y="0" type="line"/>
      <point x="174" y="509" type="line"/>
      <point x="262" y="509" type="line"/>
      <point x="191" y="175" type="line"/>
      <point x="349" y="175" type="line"/>
      <point x="366" y="257" type="line" smooth="yes"/>
      <point x="370" y="274"/>
      <point x="378" y="288"/>
      <point x="396" y="288" type="curve" smooth="yes"/>
      <point x="411" y="288"/>
      <point x="422" y="277"/>
      <point x="422" y="252" type="curve" smooth="yes"/>
      <point x="422" y="157"/>
      <point x="361" y="67"/>
      <point x="276" y="67" type="curve" smooth="yes"/>
      <point x="168" y="67" type="line"/>
      <point x="154" y="0" type="line"/>
      <point x="754" y="0" type="line"/>
      <point x="876" y="576" type="line"/>
      <point x="702" y="576" type="line"/>
      <point x="593" y="67" type="line"/>
      <point x="413" y="67" type="line"/>
      <point x="513" y="95"/>
      <point x="589" y="186"/>
      <point x="589" y="287" type="curve" smooth="yes"/>
      <point x="589" y="358"/>
      <point x="547" y="398"/>
      <point x="489" y="398" type="curve" smooth="yes"/>
      <point x="444" y="398"/>
      <point x="418" y="379"/>
      <point x="391" y="346" type="curve"/>
      <point x="426" y="509" type="line"/>
      <point x="535" y="509" type="line"/>
      <point x="549" y="576" type="line"/>
      <point x="117" y="576" type="line"/>
    </contour>
  </outline>
</glyph>
<glyph name="ja-tamil" format="2">
  <advance width="839"/>
  <unicode hex="0B9C"/>
  <note>
uni0B9C
</note>
  <anchor x="356" y="0" name="bottom"/>
  <anchor x="285" y="-331" name="nukta"/>
  <anchor x="484" y="576" name="top"/>
  <anchor x="479" y="576" name="vedic"/>
  <outline>
    <contour>
      <point x="106" y="-331" type="curve" smooth="yes"/>
      <point x="283" y="-331"/>
      <point x="376" y="-29"/>
      <point x="500" y="-29" type="curve" smooth="yes"/>
      <point x="541" y="-29"/>
      <point x="559" y="-72"/>
      <point x="559" y="-112" type="curve" smooth="yes"/>
      <point x="559" y="-184"/>
      <point x="524" y="-251"/>
      <point x="451" y="-251" type="curve" smooth="yes"/>
      <point x="426" y="-251"/>
      <point x="398" y="-237"/>
      <point x="375" y="-222" type="curve"/>
      <point x="339" y="-280" type="line"/>
      <point x="375" y="-309"/>
      <point x="426" y="-331"/>
      <point x="487" y="-331" type="curve" smooth="yes"/>
      <point x="606" y="-331"/>
      <point x="713" y="-248"/>
      <point x="713" y="-107" type="curve" smooth="yes"/>
      <point x="713" y="-10"/>
      <point x="647" y="51"/>
      <point x="556" y="51" type="curve" smooth="yes"/>
      <point x="353" y="51"/>
      <point x="248" y="-248"/>
      <point x="159" y="-248" type="curve" smooth="yes"/>
      <point x="124" y="-248"/>
      <point x="102" y="-213"/>
      <point x="102" y="-163" type="curve" smooth="yes"/>
      <point x="102" y="13"/>
      <point x="198" y="59"/>
      <point x="402" y="82" type="curve" smooth="yes"/>
      <point x="650" y="110"/>
      <point x="814" y="180"/>
      <point x="814" y="399" type="curve" smooth="yes"/>
      <point x="814" y="500"/>
      <point x="750" y="582"/>
      <point x="641" y="582" type="curve" smooth="yes"/>
      <point x="564" y="582"/>
      <point x="499" y="544"/>
      <point x="459" y="471" type="curve"/>
      <point x="442" y="543"/>
      <point x="381" y="582"/>
      <point x="297" y="582" type="curve" smooth="yes"/>
      <point x="146" y="582"/>
      <point x="49" y="444"/>
      <point x="49" y="296" type="curve" smooth="yes"/>
      <point x="49" y="215"/>
      <point x="96" y="153"/>
      <point x="165" y="153" type="curve" smooth="yes"/>
      <point x="255" y="153"/>
      <point x="315" y="223"/>
      <point x="315" y="311" type="curve" smooth="yes"/>
      <point x="315" y="372"/>
      <point x="278" y="410"/>
      <point x="228" y="410" type="curve" smooth="yes"/>
      <point x="161" y="410"/>
      <point x="115" y="358"/>
      <point x="79" y="260" type="curve"/>
      <point x="104" y="243" type="line"/>
      <point x="128" y="308"/>
      <point x="156" y="337"/>
      <point x="179" y="337" type="curve" smooth="yes"/>
      <point x="200" y="337"/>
      <point x="210" y="322"/>
      <point x="210" y="297" type="curve" smooth="yes"/>
      <point x="210" y="264"/>
      <point x="192" y="226"/>
      <point x="156" y="226" type="curve" smooth="yes"/>
      <point x="129" y="226"/>
      <point x="116" y="256"/>
      <point x="116" y="298" type="curve" smooth="yes"/>
      <point x="116" y="404"/>
      <point x="178" y="509"/>
      <point x="286" y="509" type="curve" smooth="yes"/>
      <point x="355" y="509"/>
      <point x="401" y="475"/>
      <point x="385" y="400" type="curve" smooth="yes"/>
      <point x="344" y="208" type="line"/>
      <point x="469" y="208" type="line"/>
      <point x="510" y="396" type="line" smooth="yes"/>
      <point x="525" y="466"/>
      <point x="551" y="507"/>
      <point x="598" y="507" type="curve" smooth="yes"/>
      <point x="641" y="507"/>
      <point x="661" y="472"/>
      <point x="661" y="422" type="curve" smooth="yes"/>
      <point x="661" y="207"/>
      <point x="579" y="154"/>
      <point x="345" y="127" type="curve" smooth="yes"/>
      <point x="145" y="104"/>
      <point x="-52" y="37"/>
      <point x="-52" y="-154" type="curve" smooth="yes"/>
      <point x="-52" y="-248"/>
      <point x="1" y="-331"/>
    </contour>
  </outline>
</glyph>
<glyph name="la-tamil" format="2">
  <advance width="909"/>
  <unicode hex="0BB2"/>
  <note>
uni0BB2
</note>
  <anchor x="387" y="0" name="bottom"/>
  <anchor x="384" y="0" name="nukta"/>
  <anchor x="514" y="576" name="top"/>
  <anchor x="512" y="576" name="vedic"/>
  <outline>
    <contour>
      <point x="202" y="-5" type="curve" smooth="yes"/>
      <point x="314" y="-5"/>
      <point x="397" y="78"/>
      <point x="397" y="202" type="curve" smooth="yes"/>
      <point x="397" y="286"/>
      <point x="348" y="342"/>
      <point x="267" y="342" type="curve" smooth="yes"/>
      <point x="181" y="342"/>
      <point x="115" y="276"/>
      <point x="69" y="158" type="curve"/>
      <point x="98" y="125" type="line"/>
      <point x="132" y="210"/>
      <point x="160" y="235"/>
      <point x="193" y="235" type="curve" smooth="yes"/>
      <point x="221" y="235"/>
      <point x="238" y="208"/>
      <point x="238" y="174" type="curve" smooth="yes"/>
      <point x="238" y="116"/>
      <point x="208" y="77"/>
      <point x="165" y="77" type="curve" smooth="yes"/>
      <point x="123" y="77"/>
      <point x="100" y="140"/>
      <point x="100" y="218" type="curve" smooth="yes"/>
      <point x="100" y="373"/>
      <point x="226" y="504"/>
      <point x="359" y="504" type="curve" smooth="yes"/>
      <point x="486" y="504"/>
      <point x="510" y="414"/>
      <point x="479" y="278" type="curve" smooth="yes"/>
      <point x="456" y="176" type="line" smooth="yes"/>
      <point x="431" y="65"/>
      <point x="470" y="-5"/>
      <point x="587" y="-5" type="curve" smooth="yes"/>
      <point x="763" y="-5"/>
      <point x="880" y="162"/>
      <point x="880" y="374" type="curve" smooth="yes"/>
      <point x="880" y="453"/>
      <point x="863" y="519"/>
      <point x="838" y="581" type="curve"/>
      <point x="769" y="553" type="line"/>
      <point x="792" y="497"/>
      <point x="808" y="435"/>
      <point x="808" y="369" type="curve" smooth="yes"/>
      <point x="808" y="203"/>
      <point x="726" y="83"/>
      <point x="651" y="83" type="curve" smooth="yes"/>
      <point x="616" y="83"/>
      <point x="619" y="120"/>
      <point x="629" y="165" type="curve" smooth="yes"/>
      <point x="658" y="291" type="line" smooth="yes"/>
      <point x="701" y="476"/>
      <point x="607" y="581"/>
      <point x="410" y="581" type="curve" smooth="yes"/>
      <point x="195" y="581"/>
      <point x="28" y="409"/>
      <point x="28" y="214" type="curve" smooth="yes"/>
      <point x="28" y="96"/>
      <point x="89" y="-5"/>
    </contour>
  </outline>
</glyph>
<glyph name="llla-tamil" format="2">
  <advance width="755"/>
  <unicode hex="0BB4"/>
  <note>
uni0BB4
</note>
  <anchor x="322" y="0" name="bottom"/>
  <anchor x="247" y="-331" name="nukta"/>
  <anchor x="466" y="576" name="top"/>
  <anchor x="442" y="576" name="vedic"/>
  <anchor x="772" y="576" name="imatra"/>
  <outline>
    <contour>
      <point x="150" y="-345" type="curve" smooth="yes"/>
      <point x="337" y="-345"/>
      <point x="403" y="-158"/>
      <point x="558" y="-158" type="curve" smooth="yes"/>
      <point x="567" y="-158" type="line"/>
      <point x="582" y="-91" type="line"/>
      <point x="577" y="-91" type="line" smooth="yes"/>
      <point x="490" y="-91"/>
      <point x="445" y="-70"/>
      <point x="462" y="11" type="curve" smooth="yes"/>
      <point x="485" y="122" type="line"/>
      <point x="311" y="122" type="line"/>
      <point x="289" y="17" type="line" smooth="yes"/>
      <point x="273" y="-57"/>
      <point x="345" y="-102"/>
      <point x="433" y="-118" type="curve"/>
      <point x="432" y="-124" type="line"/>
      <point x="267" y="-150"/>
      <point x="227" y="-264"/>
      <point x="123" y="-264" type="curve" smooth="yes"/>
      <point x="82" y="-264"/>
      <point x="48" y="-239"/>
      <point x="48" y="-195" type="curve" smooth="yes"/>
      <point x="48" y="-153"/>
      <point x="76" y="-122"/>
      <point x="123" y="-122" type="curve" smooth="yes"/>
      <point x="152" y="-122"/>
      <point x="181" y="-137"/>
      <point x="202" y="-158" type="curve"/>
      <point x="245" y="-107" type="line"/>
      <point x="213" y="-77"/>
      <point x="172" y="-59"/>
      <point x="125" y="-59" type="curve" smooth="yes"/>
      <point x="43" y="-59"/>
      <point x="-19" y="-119"/>
      <point x="-19" y="-205" type="curve" smooth="yes"/>
      <point x="-19" y="-281"/>
      <point x="48" y="-345"/>
    </contour>
    <component base="ma-tamil"/>
  </outline>
</glyph>
<glyph name="va-tamil" format="2">
  <advance width="968"/>
  <unicode hex="0BB5"/>
  <note>
uni0BB5
</note>
  <anchor x="451" y="0" name="bottom"/>
  <anchor x="804" y="576" name="imatra"/>
  <anchor x="440" y="0" name="nukta"/>
  <anchor x="547" y="576" name="top"/>
  <anchor x="556" y="576" name="vedic"/>
  <outline>
    <contour>
      <point x="202" y="-5" type="curve" smooth="yes"/>
      <point x="314" y="-5"/>
      <point x="397" y="78"/>
      <point x="397" y="202" type="curve" smooth="yes"/>
      <point x="397" y="286"/>
      <point x="348" y="342"/>
      <point x="267" y="342" type="curve" smooth="yes"/>
      <point x="181" y="342"/>
      <point x="115" y="276"/>
      <point x="69" y="158" type="curve"/>
      <point x="98" y="125" type="line"/>
      <point x="132" y="210"/>
      <point x="160" y="235"/>
      <point x="193" y="235" type="curve" smooth="yes"/>
      <point x="221" y="235"/>
      <point x="238" y="208"/>
      <point x="238" y="174" type="curve" smooth="yes"/>
      <point x="238" y="116"/>
      <point x="208" y="77"/>
      <point x="165" y="77" type="curve" smooth="yes"/>
      <point x="123" y="77"/>
      <point x="100" y="140"/>
      <point x="100" y="218" type="curve" smooth="yes"/>
      <point x="100" y="373"/>
      <point x="216" y="504"/>
      <point x="349" y="504" type="curve" smooth="yes"/>
      <point x="445" y="504"/>
      <point x="505" y="449"/>
      <point x="505" y="326" type="curve" smooth="yes"/>
      <point x="505" y="226"/>
      <point x="468" y="130"/>
      <point x="411" y="48" type="curve"/>
      <point x="427" y="0" type="line"/>
      <point x="851" y="0" type="line"/>
      <point x="973" y="576" type="line"/>
      <point x="799" y="576" type="line"/>
      <point x="690" y="67" type="line"/>
      <point x="526" y="67" type="line"/>
      <point x="607" y="131"/>
      <point x="676" y="227"/>
      <point x="676" y="342" type="curve" smooth="yes"/>
      <point x="676" y="511"/>
      <point x="540" y="582"/>
      <point x="389" y="582" type="curve" smooth="yes"/>
      <point x="184" y="582"/>
      <point x="28" y="409"/>
      <point x="28" y="214" type="curve" smooth="yes"/>
      <point x="28" y="96"/>
      <point x="89" y="-5"/>
    </contour>
  </outline>
</glyph>
<glyph name="om-tamil" format="2">
  <advance width="905"/>
  <unicode hex="0BD0"/>
  <note>
uni0BD0
</note>
  <outline>
    <contour>
      <point x="181" y="-392" type="curve" smooth="yes"/>
      <point x="433" y="-392"/>
      <point x="488" y="-158"/>
      <point x="618" y="-158" type="curve" smooth="yes"/>
      <point x="657" y="-158" type="line"/>
      <point x="671" y="-92" type="line"/>
      <point x="610" y="-92" type="line" smooth="yes"/>
      <point x="456" y="-92"/>
      <point x="424" y="65"/>
      <point x="522" y="221" type="curve"/>
      <point x="527" y="218" type="line"/>
      <point x="479" y="94"/>
      <point x="516" y="-3"/>
      <point x="635" y="-3" type="curve" smooth="yes"/>
      <point x="757" y="-3"/>
      <point x="855" y="109"/>
      <point x="855" y="257" type="curve" smooth="yes"/>
      <point x="855" y="469"/>
      <point x="692" y="582"/>
      <point x="472" y="582" type="curve" smooth="yes"/>
      <point x="222" y="582"/>
      <point x="29" y="416"/>
      <point x="29" y="224" type="curve" smooth="yes"/>
      <point x="29" y="106"/>
      <point x="88" y="5"/>
      <point x="201" y="5" type="curve" smooth="yes"/>
      <point x="313" y="5"/>
      <point x="394" y="88"/>
      <point x="394" y="212" type="curve" smooth="yes"/>
      <point x="394" y="296"/>
      <point x="347" y="352"/>
      <point x="266" y="352" type="curve" smooth="yes"/>
      <point x="180" y="352"/>
      <point x="116" y="286"/>
      <point x="70" y="168" type="curve"/>
      <point x="99" y="135" type="line"/>
      <point x="133" y="220"/>
      <point x="159" y="245"/>
      <point x="192" y="245" type="curve" smooth="yes"/>
      <point x="220" y="245"/>
      <point x="235" y="218"/>
      <point x="235" y="184" type="curve" smooth="yes"/>
      <point x="235" y="126"/>
      <point x="207" y="87"/>
      <point x="164" y="87" type="curve" smooth="yes"/>
      <point x="122" y="87"/>
      <point x="101" y="150"/>
      <point x="101" y="228" type="curve" smooth="yes"/>
      <point x="101" y="393"/>
      <point x="274" y="511"/>
      <point x="444" y="511" type="curve" smooth="yes"/>
      <point x="596" y="511"/>
      <point x="698" y="426"/>
      <point x="698" y="266" type="curve" smooth="yes"/>
      <point x="698" y="169"/>
      <point x="658" y="86"/>
      <point x="602" y="86" type="curve" smooth="yes"/>
      <point x="542" y="86"/>
      <point x="557" y="190"/>
      <point x="600" y="272" type="curve"/>
      <point x="524" y="309" type="line"/>
      <point x="403" y="150"/>
      <point x="351" y="-49"/>
      <point x="497" y="-118" type="curve"/>
      <point x="496" y="-123" type="line"/>
      <point x="365" y="-153"/>
      <point x="356" y="-319"/>
      <point x="164" y="-319" type="curve" smooth="yes"/>
      <point x="64" y="-319"/>
      <point x="20" y="-267"/>
      <point x="48" y="-179" type="curve"/>
      <point x="-8" y="-171" type="line"/>
      <point x="-49" y="-300"/>
      <point x="22" y="-392"/>
    </contour>
    <contour>
      <point x="82" y="-257" type="line"/>
      <point x="134" y="-257" type="line"/>
      <point x="167" y="-100" type="line"/>
      <point x="115" y="-100" type="line"/>
    </contour>
    <contour>
      <point x="98" y="-257" type="line"/>
      <point x="267" y="-257" type="line"/>
      <point x="277" y="-212" type="line"/>
      <point x="109" y="-212" type="line"/>
    </contour>
    <contour>
      <point x="162" y="-257" type="line"/>
      <point x="211" y="-257" type="line"/>
      <point x="233" y="-154" type="line" smooth="yes"/>
      <point x="235" y="-143"/>
      <point x="241" y="-140"/>
      <point x="248" y="-140" type="curve" smooth="yes"/>
      <point x="258" y="-140"/>
      <point x="260" y="-149"/>
      <point x="258" y="-160" type="curve" smooth="yes"/>
      <point x="238" y="-257" type="line"/>
      <point x="289" y="-257" type="line"/>
      <point x="306" y="-171" type="line" smooth="yes"/>
      <point x="316" y="-122"/>
      <point x="289" y="-98"/>
      <point x="253" y="-98" type="curve" smooth="yes"/>
      <point x="216" y="-98"/>
      <point x="192" y="-119"/>
      <point x="182" y="-165" type="curve" smooth="yes"/>
    </contour>
    <contour>
      <point x="235" y="-79" type="curve" smooth="yes"/>
      <point x="253" y="-79"/>
      <point x="267" y="-65"/>
      <point x="268" y="-49" type="curve" smooth="yes"/>
      <point x="269" y="-32"/>
      <point x="253" y="-17"/>
      <point x="235" y="-17" type="curve" smooth="yes"/>
      <point x="218" y="-17"/>
      <point x="203" y="-32"/>
      <point x="203" y="-49" type="curve" smooth="yes"/>
      <point x="203" y="-65"/>
      <point x="218" y="-79"/>
    </contour>
  </outline>
</glyph>
<glyph name="one-tamil" format="2">
  <advance width="745"/>
  <unicode hex="0BE7"/>
  <note>
uni0BE7
</note>
  <outline>
    <contour>
      <point x="202" y="-4" type="curve" smooth="yes"/>
      <point x="339" y="-4"/>
      <point x="410" y="60"/>
      <point x="436" y="189" type="curve" smooth="yes"/>
      <point x="453" y="273" type="line"/>
      <point x="469" y="273" type="line" smooth="yes"/>
      <point x="503" y="273"/>
      <point x="522" y="247"/>
      <point x="522" y="198" type="curve" smooth="yes"/>
      <point x="522" y="129"/>
      <point x="498" y="74"/>
      <point x="445" y="74" type="curve" smooth="yes"/>
      <point x="415" y="74"/>
      <point x="399" y="94"/>
      <point x="387" y="123" type="curve"/>
      <point x="334" y="90" type="line"/>
      <point x="355" y="50"/>
      <point x="386" y="-5"/>
      <point x="475" y="-5" type="curve" smooth="yes"/>
      <point x="591" y="-5"/>
      <point x="687" y="66"/>
      <point x="687" y="196" type="curve" smooth="yes"/>
      <point x="687" y="296"/>
      <point x="611" y="340"/>
      <point x="497" y="340" type="curve" smooth="yes"/>
      <point x="467" y="340" type="line"/>
      <point x="503" y="509" type="line"/>
      <point x="620" y="509" type="line"/>
      <point x="635" y="576" type="line"/>
      <point x="177" y="576" type="line"/>
      <point x="119" y="303" type="line"/>
      <point x="188" y="303" type="line"/>
      <point x="231" y="509" type="line"/>
      <point x="325" y="509" type="line"/>
      <point x="290" y="340" type="line"/>
      <point x="186" y="340" type="line" smooth="yes"/>
      <point x="81" y="340"/>
      <point x="14" y="255"/>
      <point x="14" y="155" type="curve" smooth="yes"/>
      <point x="14" y="74"/>
      <point x="85" y="-4"/>
    </contour>
    <contour>
      <point x="168" y="78" type="curve" smooth="yes"/>
      <point x="120" y="78"/>
      <point x="84" y="111"/>
      <point x="84" y="166" type="curve" smooth="yes"/>
      <point x="84" y="226"/>
      <point x="115" y="273"/>
      <point x="180" y="273" type="curve" smooth="yes"/>
      <point x="275" y="273" type="line"/>
      <point x="256" y="177" type="line" smooth="yes"/>
      <point x="241" y="100"/>
      <point x="217" y="78"/>
    </contour>
  </outline>
</glyph>
<glyph name="five-tamil" format="2">
  <advance width="998"/>
  <unicode hex="0BEB"/>
  <note>
uni0BEB
</note>
  <outline>
    <contour>
      <point x="395" y="-275" type="curve" smooth="yes"/>
      <point x="649" y="-275"/>
      <point x="868" y="-72"/>
      <point x="868" y="189" type="curve" smooth="yes"/>
      <point x="868" y="296"/>
      <point x="820" y="355"/>
      <point x="734" y="355" type="curve" smooth="yes"/>
      <point x="642" y="355"/>
      <point x="594" y="273"/>
      <point x="573" y="178" type="curve" smooth="yes"/>
      <point x="566" y="147" type="line"/>
      <point x="583" y="147" type="line"/>
      <point x="589" y="174" type="line" smooth="yes"/>
      <point x="599" y="221"/>
      <point x="619" y="245"/>
      <point x="654" y="245" type="curve" smooth="yes"/>
      <point x="694" y="245"/>
      <point x="710" y="213"/>
      <point x="710" y="166" type="curve" smooth="yes"/>
      <point x="710" y="-27"/>
      <point x="589" y="-203"/>
      <point x="392" y="-203" type="curve" smooth="yes"/>
      <point x="210" y="-203"/>
      <point x="107" y="-48"/>
      <point x="107" y="169" type="curve" smooth="yes"/>
      <point x="107" y="459"/>
      <point x="250" y="705"/>
      <point x="557" y="705" type="curve" smooth="yes"/>
      <point x="725" y="705"/>
      <point x="901" y="650"/>
      <point x="902" y="399" type="curve"/>
      <point x="971" y="399" type="line"/>
      <point x="990" y="669"/>
      <point x="830" y="846"/>
      <point x="579" y="846" type="curve" smooth="yes"/>
      <point x="214" y="846"/>
      <point x="31" y="517"/>
      <point x="31" y="162" type="curve" smooth="yes"/>
      <point x="31" y="-83"/>
      <point x="162" y="-275"/>
    </contour>
    <contour>
      <point x="203" y="0" type="line"/>
      <point x="273" y="0" type="line"/>
      <point x="382" y="509" type="line"/>
      <point x="487" y="509" type="line"/>
      <point x="379" y="0" type="line"/>
      <point x="552" y="0" type="line"/>
      <point x="660" y="509" type="line"/>
      <point x="771" y="509" type="line"/>
      <point x="785" y="576" type="line"/>
      <point x="325" y="576" type="line"/>
    </contour>
  </outline>
</glyph>
<glyph name="nine-tamil" format="2">
  <advance width="1052"/>
  <unicode hex="0BEF"/>
  <note>
uni0BEF
</note>
  <outline>
    <contour>
      <point x="813" y="-13" type="line"/>
      <point x="936" y="39"/>
      <point x="1009" y="126"/>
      <point x="1009" y="243" type="curve" smooth="yes"/>
      <point x="1009" y="372"/>
      <point x="902" y="439"/>
      <point x="772" y="439" type="curve" smooth="yes"/>
      <point x="600" y="439"/>
      <point x="477" y="306"/>
      <point x="477" y="136" type="curve" smooth="yes"/>
      <point x="477" y="55"/>
      <point x="520" y="-5"/>
      <point x="599" y="-5" type="curve" smooth="yes"/>
      <point x="704" y="-5"/>
      <point x="777" y="76"/>
      <point x="777" y="183" type="curve" smooth="yes"/>
      <point x="777" y="304"/>
      <point x="685" y="340"/>
      <point x="585" y="340" type="curve" smooth="yes"/>
      <point x="467" y="340" type="line"/>
      <point x="503" y="509" type="line"/>
      <point x="620" y="509" type="line"/>
      <point x="635" y="576" type="line"/>
      <point x="177" y="576" type="line"/>
      <point x="119" y="303" type="line"/>
      <point x="188" y="303" type="line"/>
      <point x="231" y="509" type="line"/>
      <point x="325" y="509" type="line"/>
      <point x="290" y="340" type="line"/>
      <point x="186" y="340" type="line" smooth="yes"/>
      <point x="81" y="340"/>
      <point x="14" y="255"/>
      <point x="14" y="155" type="curve" smooth="yes"/>
      <point x="14" y="74"/>
      <point x="85" y="-4"/>
      <point x="202" y="-4" type="curve" smooth="yes"/>
      <point x="339" y="-4"/>
      <point x="410" y="60"/>
      <point x="436" y="189" type="curve" smooth="yes"/>
      <point x="453" y="273" type="line"/>
      <point x="561" y="273" type="line" smooth="yes"/>
      <point x="604" y="273"/>
      <point x="631" y="248"/>
      <point x="631" y="182" type="curve" smooth="yes"/>
      <point x="631" y="139"/>
      <point x="613" y="76"/>
      <point x="572" y="76" type="curve" smooth="yes"/>
      <point x="551" y="76"/>
      <point x="538" y="102"/>
      <point x="538" y="144" type="curve" smooth="yes"/>
      <point x="538" y="246"/>
      <point x="614" y="365"/>
      <point x="730" y="365" type="curve" smooth="yes"/>
      <point x="803" y="365"/>
      <point x="860" y="325"/>
      <point x="860" y="234" type="curve" smooth="yes"/>
      <point x="860" y="157"/>
      <point x="835" y="96"/>
      <point x="787" y="35" type="curve"/>
    </contour>
    <contour>
      <point x="168" y="78" type="curve" smooth="yes"/>
      <point x="120" y="78"/>
      <point x="84" y="111"/>
      <point x="84" y="166" type="curve" smooth="yes"/>
      <point x="84" y="226"/>
      <point x="115" y="273"/>
      <point x="180" y="273" type="curve" smooth="yes"/>
      <point x="275" y="273" type="line"/>
      <point x="256" y="177" type="line" smooth="yes"/>
      <point x="241" y="100"/>
      <point x="217" y="78"/>
    </contour>
  </outline>
</glyph>
<glyph name="onehundred-tamil" format="2">
  <advance width="732"/>
  <unicode hex="0BF1"/>
  <note>
uni0BF1
</note>
  <outline>
    <contour>
      <point x="161" y="0" type="line"/>
      <point x="229" y="0" type="line"/>
      <point x="338" y="509" type="line"/>
      <point x="470" y="509" type="line"/>
      <point x="362" y="0" type="line"/>
      <point x="536" y="0" type="line"/>
      <point x="644" y="509" type="line"/>
      <point x="733" y="509" type="line"/>
      <point x="748" y="576" type="line"/>
      <point x="283" y="576" type="line"/>
    </contour>
    <contour>
      <point x="-13" y="0" type="line"/>
      <point x="58" y="0" type="line"/>
      <point x="155" y="457" type="line" smooth="yes"/>
      <point x="165" y="502"/>
      <point x="187" y="519"/>
      <point x="215" y="519" type="curve" smooth="yes"/>
      <point x="244" y="519"/>
      <point x="266" y="495"/>
      <point x="255" y="444" type="curve"/>
      <point x="280" y="444" type="line"/>
      <point x="299" y="540"/>
      <point x="257" y="584"/>
      <point x="200" y="584" type="curve" smooth="yes"/>
      <point x="131" y="584"/>
      <point x="99" y="527"/>
      <point x="86" y="465" type="curve" smooth="yes"/>
    </contour>
  </outline>
</glyph>
<glyph name="onethousand-tamil" format="2">
  <advance width="1037"/>
  <unicode hex="0BF2"/>
  <note>
uni0BF2
</note>
  <outline>
    <contour>
      <point x="223" y="-4" type="curve" smooth="yes"/>
      <point x="360" y="-4"/>
      <point x="431" y="60"/>
      <point x="457" y="189" type="curve" smooth="yes"/>
      <point x="474" y="273" type="line"/>
      <point x="905" y="273" type="line"/>
      <point x="920" y="340" type="line"/>
      <point x="488" y="340" type="line"/>
      <point x="524" y="509" type="line"/>
      <point x="641" y="509" type="line"/>
      <point x="656" y="576" type="line"/>
      <point x="198" y="576" type="line"/>
      <point x="140" y="303" type="line"/>
      <point x="209" y="303" type="line"/>
      <point x="252" y="509" type="line"/>
      <point x="346" y="509" type="line"/>
      <point x="311" y="340" type="line"/>
      <point x="207" y="340" type="line" smooth="yes"/>
      <point x="102" y="340"/>
      <point x="35" y="255"/>
      <point x="35" y="155" type="curve" smooth="yes"/>
      <point x="35" y="74"/>
      <point x="106" y="-4"/>
    </contour>
    <contour>
      <point x="189" y="78" type="curve" smooth="yes"/>
      <point x="141" y="78"/>
      <point x="105" y="111"/>
      <point x="105" y="166" type="curve" smooth="yes"/>
      <point x="105" y="226"/>
      <point x="136" y="273"/>
      <point x="201" y="273" type="curve" smooth="yes"/>
      <point x="296" y="273" type="line"/>
      <point x="277" y="177" type="line" smooth="yes"/>
      <point x="262" y="100"/>
      <point x="238" y="78"/>
    </contour>
    <contour>
      <point x="323" y="-323" type="curve"/>
      <point x="341" y="-218"/>
      <point x="384" y="-157"/>
      <point x="488" y="-157" type="curve" smooth="yes"/>
      <point x="612" y="-157" type="line" smooth="yes"/>
      <point x="807" y="-157"/>
      <point x="939" y="-103"/>
      <point x="939" y="65" type="curve" smooth="yes"/>
      <point x="939" y="162"/>
      <point x="868" y="209"/>
      <point x="745" y="209" type="curve" smooth="yes"/>
      <point x="587" y="209" type="line" smooth="yes"/>
      <point x="515" y="209"/>
      <point x="458" y="163"/>
      <point x="458" y="83" type="curve" smooth="yes"/>
      <point x="458" y="26"/>
      <point x="505" y="-23"/>
      <point x="590" y="-23" type="curve" smooth="yes"/>
      <point x="691" y="-23"/>
      <point x="738" y="24"/>
      <point x="756" y="109" type="curve" smooth="yes"/>
      <point x="796" y="297" type="line"/>
      <point x="653" y="297" type="line"/>
      <point x="612" y="102" type="line" smooth="yes"/>
      <point x="604" y="64"/>
      <point x="593" y="43"/>
      <point x="562" y="43" type="curve" smooth="yes"/>
      <point x="533" y="43"/>
      <point x="520" y="70"/>
      <point x="520" y="91" type="curve" smooth="yes"/>
      <point x="520" y="127"/>
      <point x="542" y="148"/>
      <point x="575" y="148" type="curve" smooth="yes"/>
      <point x="736" y="148" type="line" smooth="yes"/>
      <point x="778" y="148"/>
      <point x="795" y="123"/>
      <point x="795" y="73" type="curve" smooth="yes"/>
      <point x="795" y="-38"/>
      <point x="745" y="-99"/>
      <point x="627" y="-99" type="curve" smooth="yes"/>
      <point x="444" y="-99" type="line" smooth="yes"/>
      <point x="323" y="-99"/>
      <point x="214" y="-127"/>
      <point x="214" y="-233" type="curve" smooth="yes"/>
      <point x="214" y="-289"/>
      <point x="256" y="-323"/>
    </contour>
  </outline>
</glyph>
<glyph name="day-tamil" format="2">
  <advance width="730"/>
  <unicode hex="0BF3"/>
  <note>
uni0BF3
</note>
  <outline>
    <contour>
      <point x="172" y="-5" type="curve" smooth="yes"/>
      <point x="270" y="-5"/>
      <point x="351" y="81"/>
      <point x="351" y="205" type="curve" smooth="yes"/>
      <point x="351" y="289"/>
      <point x="307" y="342"/>
      <point x="238" y="342" type="curve" smooth="yes"/>
      <point x="158" y="342"/>
      <point x="111" y="276"/>
      <point x="65" y="158" type="curve"/>
      <point x="87" y="125" type="line"/>
      <point x="114" y="207"/>
      <point x="135" y="235"/>
      <point x="164" y="235" type="curve" smooth="yes"/>
      <point x="185" y="235"/>
      <point x="192" y="214"/>
      <point x="192" y="180" type="curve" smooth="yes"/>
      <point x="192" y="122"/>
      <point x="169" y="77"/>
      <point x="139" y="77" type="curve" smooth="yes"/>
      <point x="110" y="77"/>
      <point x="101" y="114"/>
      <point x="101" y="196" type="curve" smooth="yes"/>
      <point x="101" y="351"/>
      <point x="204" y="504"/>
      <point x="322" y="504" type="curve" smooth="yes"/>
      <point x="418" y="504"/>
      <point x="453" y="436"/>
      <point x="453" y="326" type="curve" smooth="yes"/>
      <point x="453" y="226"/>
      <point x="416" y="130"/>
      <point x="359" y="48" type="curve"/>
      <point x="375" y="0" type="line"/>
      <point x="656" y="0" type="line"/>
      <point x="670" y="67" type="line"/>
      <point x="470" y="67" type="line"/>
      <point x="551" y="131"/>
      <point x="620" y="230"/>
      <point x="620" y="346" type="curve" smooth="yes"/>
      <point x="620" y="506"/>
      <point x="507" y="582"/>
      <point x="360" y="582" type="curve" smooth="yes"/>
      <point x="170" y="582"/>
      <point x="29" y="387"/>
      <point x="29" y="192" type="curve" smooth="yes"/>
      <point x="29" y="81"/>
      <point x="67" y="-5"/>
    </contour>
  </outline>
</glyph>
<glyph name="rupee-tamil" format="2">
  <advance width="886"/>
  <unicode hex="0BF9"/>
  <note>
uni0BF9
</note>
  <outline>
    <contour>
      <point x="349" y="-275" type="curve" smooth="yes"/>
      <point x="609" y="-275"/>
      <point x="825" y="-62"/>
      <point x="825" y="199" type="curve" smooth="yes"/>
      <point x="825" y="299"/>
      <point x="781" y="355"/>
      <point x="705" y="355" type="curve" smooth="yes"/>
      <point x="623" y="355"/>
      <point x="571" y="281"/>
      <point x="548" y="178" type="curve" smooth="yes"/>
      <point x="541" y="147" type="line"/>
      <point x="558" y="147" type="line"/>
      <point x="564" y="174" type="line" smooth="yes"/>
      <point x="574" y="221"/>
      <point x="589" y="245"/>
      <point x="622" y="245" type="curve" smooth="yes"/>
      <point x="652" y="245"/>
      <point x="667" y="223"/>
      <point x="667" y="176" type="curve" smooth="yes"/>
      <point x="667" y="-17"/>
      <point x="551" y="-203"/>
      <point x="348" y="-203" type="curve" smooth="yes"/>
      <point x="176" y="-203"/>
      <point x="98" y="-58"/>
      <point x="98" y="159" type="curve" smooth="yes"/>
      <point x="98" y="385"/>
      <point x="249" y="846"/>
      <point x="429" y="846" type="curve" smooth="yes"/>
      <point x="476" y="846"/>
      <point x="508" y="823"/>
      <point x="508" y="771" type="curve" smooth="yes"/>
      <point x="508" y="731"/>
      <point x="489" y="690"/>
      <point x="445" y="690" type="curve" smooth="yes"/>
      <point x="417" y="690"/>
      <point x="402" y="718"/>
      <point x="402" y="755" type="curve" smooth="yes"/>
      <point x="402" y="849"/>
      <point x="472" y="931"/>
      <point x="571" y="931" type="curve" smooth="yes"/>
      <point x="638" y="931"/>
      <point x="678" y="895"/>
      <point x="678" y="822" type="curve" smooth="yes"/>
      <point x="678" y="769"/>
      <point x="649" y="715"/>
      <point x="609" y="673" type="curve"/>
      <point x="625" y="625" type="line"/>
      <point x="780" y="625" type="line"/>
      <point x="794" y="691" type="line"/>
      <point x="659" y="691" type="line"/>
      <point x="628" y="656" type="line"/>
      <point x="707" y="693"/>
      <point x="767" y="764"/>
      <point x="767" y="849" type="curve" smooth="yes"/>
      <point x="767" y="950"/>
      <point x="682" y="998"/>
      <point x="590" y="998" type="curve" smooth="yes"/>
      <point x="456" y="998"/>
      <point x="342" y="870"/>
      <point x="342" y="746" type="curve" smooth="yes"/>
      <point x="342" y="679"/>
      <point x="375" y="621"/>
      <point x="447" y="621" type="curve" smooth="yes"/>
      <point x="525" y="621"/>
      <point x="592" y="682"/>
      <point x="592" y="772" type="curve" smooth="yes"/>
      <point x="592" y="858"/>
      <point x="533" y="908"/>
      <point x="440" y="908" type="curve" smooth="yes"/>
      <point x="200" y="908"/>
      <point x="22" y="442"/>
      <point x="22" y="148" type="curve" smooth="yes"/>
      <point x="22" y="-92"/>
      <point x="126" y="-275"/>
    </contour>
    <contour>
      <point x="180" y="0" type="line"/>
      <point x="251" y="0" type="line"/>
      <point x="359" y="509" type="line"/>
      <point x="462" y="509" type="line"/>
      <point x="354" y="0" type="line"/>
      <point x="527" y="0" type="line"/>
      <point x="636" y="509" type="line"/>
      <point x="756" y="509" type="line"/>
      <point x="770" y="576" type="line"/>
      <point x="303" y="576" type="line"/>
    </contour>
  </outline>
</glyph>
<glyph name="endash" format="2">
  <advance width="500"/>
  <unicode hex="2013"/>
  <outline>
    <contour>
      <point x="-14" y="231" type="line"/>
      <point x="498" y="231" type="line"/>
      <point x="514" y="306" type="line"/>
      <point x="2" y="306" type="line"/>
    </contour>
  </outline>
</glyph>
<glyph name="quotedblleft" format="2">
  <advance width="428"/>
  <unicode hex="201C"/>
  <outline>
    <contour>
      <point x="349" y="401" type="curve" smooth="yes"/>
      <point x="387" y="401"/>
      <point x="423" y="430"/>
      <point x="423" y="478" type="curve" smooth="yes"/>
      <point x="423" y="532"/>
      <point x="388" y="533"/>
      <point x="388" y="573" type="curve" smooth="yes"/>
      <point x="388" y="613"/>
      <point x="417" y="641"/>
      <point x="476" y="659" type="curve"/>
      <point x="493" y="716" type="line"/>
      <point x="352" y="686"/>
      <point x="275" y="597"/>
      <point x="275" y="490" type="curve" smooth="yes"/>
      <point x="275" y="433"/>
      <point x="307" y="401"/>
    </contour>
    <contour>
      <point x="172" y="401" type="curve" smooth="yes"/>
      <point x="210" y="401"/>
      <point x="245" y="430"/>
      <point x="245" y="478" type="curve" smooth="yes"/>
      <point x="245" y="532"/>
      <point x="210" y="533"/>
      <point x="210" y="573" type="curve" smooth="yes"/>
      <point x="210" y="613"/>
      <point x="240" y="641"/>
      <point x="299" y="659" type="curve"/>
      <point x="315" y="716" type="line"/>
      <point x="174" y="686"/>
      <point x="97" y="597"/>
      <point x="97" y="490" type="curve" smooth="yes"/>
      <point x="97" y="433"/>
      <point x="129" y="401"/>
    </contour>
  </outline>
</glyph>
<glyph name="rupeeIndian" format="2">
  <advance width="417"/>
  <unicode hex="20B9"/>
  <outline>
    <contour>
      <point x="275" y="0" type="curve" smooth="yes"/>
      <point x="370" y="0" type="line"/>
      <point x="383" y="61" type="line"/>
      <point x="370" y="61" type="line" smooth="yes"/>
      <point x="351" y="61"/>
      <point x="320" y="90"/>
      <point x="290" y="148" type="curve" smooth="yes"/>
      <point x="197" y="326" type="line"/>
      <point x="235" y="336"/>
      <point x="314" y="381"/>
      <point x="355" y="469" type="curve"/>
      <point x="408" y="469" type="line"/>
      <point x="423" y="537" type="line"/>
      <point x="377" y="537" type="line"/>
      <point x="384" y="581"/>
      <point x="384" y="618"/>
      <point x="371" y="646" type="curve"/>
      <point x="446" y="646" type="line"/>
      <point x="460" y="714" type="line"/>
      <point x="112" y="714" type="line"/>
      <point x="97" y="646" type="line"/>
      <point x="99" y="646" type="line" smooth="yes"/>
      <point x="142" y="646"/>
      <point x="192" y="615"/>
      <point x="182" y="537" type="curve"/>
      <point x="79" y="537" type="line"/>
      <point x="64" y="469" type="line"/>
      <point x="163" y="469" type="line"/>
      <point x="139" y="396"/>
      <point x="126" y="360"/>
      <point x="63" y="360" type="curve" smooth="yes"/>
      <point x="36" y="360" type="line"/>
      <point x="23" y="298" type="line"/>
      <point x="114" y="100" type="line" smooth="yes"/>
      <point x="144" y="34"/>
      <point x="178" y="0"/>
    </contour>
  </outline>
</glyph>
<glyph name="muu-tamil" format="2">
  <advance width="1115"/>
  <note>
g126
</note>
  <anchor x="509" y="0" name="bottom"/>
  <anchor x="425" y="-275" name="nukta"/>
  <anchor x="970" y="576" name="top"/>
  <anchor x="869" y="576" name="vedic"/>
  <outline>
    <contour>
      <point x="425" y="-275" type="curve" smooth="yes"/>
      <point x="607" y="-275"/>
      <point x="778" y="-197"/>
      <point x="821" y="5" type="curve" smooth="yes"/>
      <point x="911" y="428" type="line" smooth="yes"/>
      <point x="919" y="467"/>
      <point x="930" y="484"/>
      <point x="954" y="484" type="curve" smooth="yes"/>
      <point x="982" y="484"/>
      <point x="1009" y="447"/>
      <point x="1009" y="348" type="curve" smooth="yes"/>
      <point x="1009" y="242"/>
      <point x="969" y="67"/>
      <point x="885" y="67" type="curve" smooth="yes"/>
      <point x="543" y="67" type="line"/>
      <point x="651" y="576" type="line"/>
      <point x="477" y="576" type="line"/>
      <point x="354" y="0" type="line"/>
      <point x="875" y="0" type="line" smooth="yes"/>
      <point x="1019" y="0"/>
      <point x="1080" y="188"/>
      <point x="1080" y="355" type="curve" smooth="yes"/>
      <point x="1080" y="505"/>
      <point x="1006" y="582"/>
      <point x="908" y="582" type="curve" smooth="yes"/>
      <point x="801" y="582"/>
      <point x="753" y="508"/>
      <point x="735" y="422" type="curve" smooth="yes"/>
      <point x="648" y="12" type="line" smooth="yes"/>
      <point x="617" y="-133"/>
      <point x="540" y="-203"/>
      <point x="412" y="-203" type="curve" smooth="yes"/>
      <point x="218" y="-203"/>
      <point x="104" y="-55"/>
      <point x="104" y="192" type="curve" smooth="yes"/>
      <point x="104" y="320"/>
      <point x="169" y="487"/>
      <point x="249" y="487" type="curve" smooth="yes"/>
      <point x="272" y="487"/>
      <point x="285" y="471"/>
      <point x="285" y="447" type="curve" smooth="yes"/>
      <point x="285" y="376"/>
      <point x="209" y="338"/>
      <point x="108" y="360" type="curve"/>
      <point x="90" y="298" type="line"/>
      <point x="252" y="265"/>
      <point x="403" y="329"/>
      <point x="403" y="471" type="curve" smooth="yes"/>
      <point x="403" y="539"/>
      <point x="356" y="581"/>
      <point x="285" y="581" type="curve" smooth="yes"/>
      <point x="139" y="581"/>
      <point x="32" y="363"/>
      <point x="31" y="182" type="curve" smooth="yes"/>
      <point x="29" y="-89"/>
      <point x="177" y="-275"/>
    </contour>
  </outline>
</glyph>
<glyph name="puu-tamil" format="2">
  <advance width="985"/>
  <note>
g124
</note>
  <anchor x="350" y="0" name="bottom"/>
  <anchor x="303" y="-381" name="nukta"/>
  <anchor x="409" y="576" name="top"/>
  <anchor x="586" y="576" name="vedic"/>
  <outline>
    <contour>
      <point x="303" y="-381" type="curve" smooth="yes"/>
      <point x="549" y="-381"/>
      <point x="915" y="-273"/>
      <point x="915" y="16" type="curve" smooth="yes"/>
      <point x="915" y="109"/>
      <point x="859" y="153"/>
      <point x="786" y="153" type="curve" smooth="yes"/>
      <point x="692" y="153"/>
      <point x="630" y="87"/>
      <point x="583" y="-42" type="curve"/>
      <point x="611" y="-49" type="line"/>
      <point x="624" y="9"/>
      <point x="649" y="25"/>
      <point x="684" y="25" type="curve" smooth="yes"/>
      <point x="714" y="25"/>
      <point x="735" y="2"/>
      <point x="735" y="-32" type="curve" smooth="yes"/>
      <point x="735" y="-230"/>
      <point x="483" y="-315"/>
      <point x="291" y="-315" type="curve" smooth="yes"/>
      <point x="152" y="-315"/>
      <point x="25" y="-276"/>
      <point x="25" y="-200" type="curve" smooth="yes"/>
      <point x="25" y="-98"/>
      <point x="194" y="-120"/>
      <point x="295" y="-169" type="curve"/>
      <point x="324" y="-104" type="line"/>
      <point x="148" y="-40"/>
      <point x="-41" y="-42"/>
      <point x="-41" y="-207" type="curve" smooth="yes"/>
      <point x="-41" y="-322"/>
      <point x="108" y="-381"/>
    </contour>
    <contour>
      <point x="-3" y="0" type="line"/>
      <point x="519" y="0" type="line"/>
      <point x="534" y="67" type="line"/>
      <point x="185" y="67" type="line"/>
      <point x="293" y="576" type="line"/>
      <point x="119" y="576" type="line"/>
    </contour>
    <contour>
      <point x="412" y="-171" type="line"/>
      <point x="585" y="-171" type="line"/>
      <point x="744" y="576" type="line"/>
      <point x="570" y="576" type="line"/>
    </contour>
  </outline>
</glyph>
<glyph name="vii-tamil" format="2">
  <advance width="972"/>
  <note>
g142
</note>
  <anchor x="452" y="0" name="bottom"/>
  <anchor x="441" y="0" name="nukta"/>
  <anchor x="901" y="929" name="top"/>
  <anchor x="557" y="576" name="vedic"/>
  <anchor x="804" y="576" name="imatra"/>
  <outline>
    <contour>
      <point x="822" y="509" type="curve" smooth="yes"/>
      <point x="837" y="509" type="line"/>
      <point x="852" y="576" type="line"/>
      <point x="836" y="576" type="line" smooth="yes"/>
      <point x="772" y="576"/>
      <point x="738" y="623"/>
      <point x="738" y="693" type="curve" smooth="yes"/>
      <point x="738" y="781"/>
      <point x="784" y="858"/>
      <point x="874" y="858" type="curve" smooth="yes"/>
      <point x="925" y="858"/>
      <point x="947" y="832"/>
      <point x="947" y="785" type="curve" smooth="yes"/>
      <point x="947" y="745"/>
      <point x="929" y="704"/>
      <point x="889" y="704" type="curve" smooth="yes"/>
      <point x="834" y="704"/>
      <point x="846" y="810"/>
      <point x="892" y="880" type="curve"/>
      <point x="848" y="885" type="line"/>
      <point x="763" y="764"/>
      <point x="778" y="612"/>
      <point x="915" y="612" type="curve" smooth="yes"/>
      <point x="997" y="612"/>
      <point x="1075" y="676"/>
      <point x="1075" y="776" type="curve" smooth="yes"/>
      <point x="1075" y="870"/>
      <point x="1002" y="929"/>
      <point x="893" y="929" type="curve" smooth="yes"/>
      <point x="771" y="929"/>
      <point x="670" y="828"/>
      <point x="670" y="686" type="curve" smooth="yes"/>
      <point x="670" y="584"/>
      <point x="726" y="509"/>
    </contour>
    <component base="va-tamil"/>
  </outline>
</glyph>
